<?xml version="1.0" encoding="UTF-8" standalone="no"?>
<svg width="143px" height="38px" viewBox="0 0 143 38" version="1.1" xmlns="http://www.w3.org/2000/svg" xmlns:xlink="http://www.w3.org/1999/xlink">
    <!-- Generator: Sketch 42 (36781) - http://www.bohemiancoding.com/sketch -->
    <title>NGS LOGO</title>
    <desc>Created with Sketch.</desc>
    <defs>
        <linearGradient x1="0%" y1="0%" x2="101.999998%" y2="100.999999%" id="linearGradient-1">
            <stop stop-color="#3023AE" offset="0%"></stop>
            <stop stop-color="#C96DD8" offset="100%"></stop>
        </linearGradient>
    </defs>
    <g id="Page-1" stroke="none" stroke-width="1" fill="none" fill-rule="evenodd">
        <g id="A4-Copy" transform="translate(-226.000000, -219.000000)">
            <g id="NGS-LOGO" transform="translate(226.000000, 219.000000)">
                <path d="M87.114,32.172 L77.034,17.196 L77.034,32.028 C77.034,32.2920013 76.938001,32.519999 76.746,32.712 C76.553999,32.904001 76.3260013,33 76.062,33 L73.146,33 C72.8819987,33 72.654001,32.904001 72.462,32.712 C72.269999,32.519999 72.174,32.2920013 72.174,32.028 L72.174,8.772 C72.174,8.50799868 72.269999,8.28000096 72.462,8.088 C72.654001,7.89599904 72.8819987,7.8 73.146,7.8 L75.666,7.8 C76.2180028,7.8 76.6859981,8.07599724 77.07,8.628 L87.15,23.604 L87.15,8.772 C87.15,8.50799868 87.245999,8.28000096 87.438,8.088 C87.630001,7.89599904 87.8579987,7.8 88.122,7.8 L91.038,7.8 C91.3020013,7.8 91.529999,7.89599904 91.722,8.088 C91.914001,8.28000096 92.01,8.50799868 92.01,8.772 L92.01,32.028 C92.01,32.2920013 91.914001,32.519999 91.722,32.712 C91.529999,32.904001 91.3020013,33 91.038,33 L88.518,33 C87.9659972,33 87.4980019,32.7240028 87.114,32.172 Z M113.808,8.664 C115.380008,9.48000408 116.501997,10.4339945 117.174,11.526 C117.846003,12.6180055 118.218,13.6319953 118.29,14.568 C118.314,14.8560014 118.230001,15.0899991 118.038,15.27 C117.845999,15.4500009 117.606001,15.54 117.318,15.54 L114.402,15.54 C113.969998,15.54 113.646001,15.336002 113.43,14.928 C112.349995,12.93599 110.418014,11.94 107.634,11.94 C105.857991,11.94 104.424005,12.4259951 103.332,13.398 C102.239995,14.3700049 101.658,15.6719918 101.586,17.304 C101.562,17.904003 101.55,18.8759933 101.55,20.22 C101.55,21.5880068 101.562,22.571997 101.586,23.172 C101.658,25.0920096 102.221995,26.5199953 103.278,27.456 C104.334005,28.3920047 105.785991,28.86 107.634,28.86 C111.69002,28.86 113.718,27.0120185 113.718,23.316 L113.718,23.028 L109.326,23.028 C109.061999,23.028 108.834001,22.932001 108.642,22.74 C108.449999,22.547999 108.354,22.3200013 108.354,22.056 L108.354,19.5 C108.354,19.2359987 108.449999,19.008001 108.642,18.816 C108.834001,18.623999 109.061999,18.528 109.326,18.528 L117.606,18.528 C117.870001,18.528 118.097999,18.623999 118.29,18.816 C118.482001,19.008001 118.578,19.2359987 118.578,19.5 L118.578,23.46 C118.578,25.4040097 118.164004,27.1199926 117.336,28.608 C116.507996,30.0960074 115.272008,31.2599958 113.628,32.1 C111.983992,32.9400042 109.986012,33.36 107.634,33.36 C104.129982,33.36 101.466009,32.4780088 99.642,30.714 C97.8179909,28.9499912 96.8460006,26.5560151 96.726,23.532 C96.7019999,22.931997 96.69,21.8640077 96.69,20.328 C96.69,18.7919923 96.7019999,17.724003 96.726,17.124 C96.8460006,14.1719852 97.8299908,11.8200088 99.678,10.068 C101.526009,8.31599124 104.177983,7.44 107.634,7.44 C110.178013,7.44 112.235992,7.84799592 113.808,8.664 Z M141.366,14.766 C141.173999,14.9460009 140.934001,15.036 140.646,15.036 L138.126,15.036 C137.741998,15.036 137.442001,14.9640007 137.226,14.82 C137.009999,14.6759993 136.818001,14.4600014 136.65,14.172 C136.241998,13.4999966 135.654004,12.960002 134.886,12.552 C134.117996,12.143998 133.074007,11.94 131.754,11.94 C130.457994,11.94 129.366004,12.2039974 128.478,12.732 C127.589996,13.2600026 127.146,13.9679956 127.146,14.856 C127.146,15.5760036 127.355998,16.133998 127.776,16.53 C128.196002,16.926002 128.849996,17.2559987 129.738,17.52 C130.626004,17.7840013 132.07799,18.1319978 134.094,18.564 C136.998015,19.1880031 139.097994,20.0639944 140.394,21.192 C141.690006,22.3200056 142.338,23.8679902 142.338,25.836 C142.338,27.2760072 141.918004,28.5659943 141.078,29.706 C140.237996,30.8460057 139.032008,31.7399968 137.46,32.388 C135.887992,33.0360032 134.046011,33.36 131.934,33.36 C130.133991,33.36 128.454008,33.0720029 126.894,32.496 C125.333992,31.9199971 124.074005,31.0980053 123.114,30.03 C122.153995,28.9619947 121.638,27.7440068 121.566,26.376 C121.542,26.0879986 121.625999,25.8540009 121.818,25.674 C122.010001,25.4939991 122.249999,25.404 122.538,25.404 L125.058,25.404 C125.442002,25.404 125.747999,25.4759993 125.976,25.62 C126.204001,25.7640007 126.389999,25.9799986 126.534,26.268 C126.942002,27.060004 127.535996,27.6899977 128.316,28.158 C129.096004,28.6260023 130.301992,28.86 131.934,28.86 C133.518008,28.86 134.837995,28.6080025 135.894,28.104 C136.950005,27.5999975 137.478,26.844005 137.478,25.836 C137.478,25.2599971 137.274002,24.7980017 136.866,24.45 C136.457998,24.1019983 135.882004,23.8140011 135.138,23.586 C134.393996,23.3579989 133.266008,23.0640018 131.754,22.704 C131.153997,22.5839994 130.374005,22.4040012 129.414,22.164 C126.893987,21.5399969 125.076006,20.6880054 123.96,19.608 C122.843994,18.5279946 122.286,16.9440104 122.286,14.856 C122.286,13.4399929 122.699996,12.1680056 123.528,11.04 C124.356004,9.91199436 125.489993,9.03000318 126.93,8.394 C128.370007,7.75799682 129.977991,7.44 131.754,7.44 C133.77001,7.44 135.515993,7.78199658 136.992,8.466 C138.468007,9.15000342 139.589996,10.0079948 140.358,11.04 C141.126004,12.0720052 141.546,13.0799951 141.618,14.064 C141.642,14.3520014 141.558001,14.5859991 141.366,14.766 Z" id="NGS-Copy-4" fill="#666666"></path>
                <path d="M47.1073081,34.0028296 C52.1227262,33.5104106 56,29.236055 56,24.1 C56,18.9317482 52.0784204,14.6494363 47.0383372,14.2331479 L45.3305506,14.0920924 L45.2080819,12.3828723 C44.8703446,7.66927997 40.9857044,4 36.3043478,4 C31.9149489,4 28.1892232,7.23580972 27.4926269,11.586613 L26.8341499,15.6993314 L24.0362296,12.6139324 C22.5911812,11.0204092 20.5657929,10.1 18.3913043,10.1 C14.1621414,10.1 10.7246377,13.5760274 10.7246377,17.875 C10.7246377,18.2195271 10.7466149,18.5607399 10.7901071,18.8973761 L11.0305026,20.7580745 L9.18894346,21.1167507 C6.20143748,21.6986204 4,24.3659648 4,27.5 C4,30.7727945 6.39549219,33.5144374 9.54544907,33.9421175 L12.0255912,34.0001604 C13.1183669,34.0138635 14,34.9039735 14,36 C14,37.1045695 13.1045695,38 12,38 C11.9772649,38 11.9546184,37.9996207 11.9320665,37.9988679 L9.3798866,37.9403081 L9.16776969,37.9262612 C3.95625329,37.3015795 0,32.8291977 0,27.5 C2.84217094e-14,23.058848 2.75296645,19.1880853 6.72628658,17.6750574 C6.83201865,11.2689099 12.0092278,6.1 18.3913043,6.1 C20.5737877,6.1 22.6607789,6.70914276 24.4581228,7.81502381 C26.4681868,3.18062744 31.05192,0 36.3043478,0 C42.5463764,0 47.7935555,4.47857869 48.980651,10.4770237 C55.3026293,11.7684439 60,17.412476 60,24.1 C60,31.3224013 54.5182302,37.3372957 47.4153345,37.9915687 L47.4121943,37.9574777 C47.2791763,37.985347 47.1412994,38 47,38 C45.8954305,38 45,37.1045695 45,36 C45,34.8954305 45.8954305,34 47,34 C47.0359994,34 47.0717767,34.0009511 47.1073081,34.0028296 Z" id="Combined-Shape" fill="url(#linearGradient-1)" fill-rule="nonzero"></path>
                <path d="M18.530984,34.2195101 C17.7814231,35.0308252 17.8314848,36.2961653 18.6427999,37.0457262 C19.454115,37.7952871 20.7194551,37.7452254 21.469016,36.9339103 L28.469016,29.3572001 C29.197703,28.5684786 29.1735114,27.3450843 28.4142136,26.5857864 L21.4142136,19.5857864 C20.633165,18.8047379 19.366835,18.8047379 18.5857864,19.5857864 C17.8047379,20.366835 17.8047379,21.633165 18.5857864,22.4142136 L24.2264182,28.0548453 L18.530984,34.2195101 Z" id="Path-2-Copy-4" fill="url(#linearGradient-1)" fill-rule="nonzero"></path>
                <rect id="Rectangle-Copy-2" fill="url(#linearGradient-1)" x="28" y="34" width="13" height="4" rx="2"></rect>
            </g>
        </g>
    </g>
</svg>